<svg width="46" height="44" viewBox="0 0 46 44" fill="none" xmlns="http://www.w3.org/2000/svg">
<path opacity="0.21" fill-rule="evenodd" clip-rule="evenodd" d="M22.7977 0.498474H23.7209C35.6859 0.498474 45.3855 10.1981 45.3855 22.1631C45.3855 34.1281 35.6859 43.8277 23.7209 43.8277H22.7977H21.8746C9.90952 43.8277 0.20993 34.1281 0.20993 22.1631C0.20993 10.1981 9.90951 0.498474 21.8746 0.498474H22.7977Z" fill="#ABE1FD"/>
<path d="M10.4851 27.5549C12.1701 23.9969 15.933 21.7036 20.0888 21.7036H24.6043C28.7602 21.7036 32.5231 23.9969 34.2081 27.5549C35.7532 30.8127 33.2091 34.4793 29.4062 34.4793H15.287C11.4841 34.4793 8.93996 30.8127 10.4851 27.5549Z" stroke="#33B5F4" stroke-width="2" stroke-miterlimit="8.3333" stroke-linejoin="round"/>
<path d="M17.8044 13.1887C17.8044 10.8379 19.8357 8.92798 22.3466 8.92798C24.8574 8.92798 26.8887 10.8315 26.8887 13.1887C26.8887 15.5458 24.8574 17.4493 22.3466 17.4493C19.8357 17.4493 17.8044 15.5394 17.8044 13.1887Z" stroke="#33B5F4" stroke-width="2" stroke-miterlimit="8.3333" stroke-linejoin="round"/>
<path d="M20.7348 21.7036L19.1964 30.0334L21.4808 31.7645C21.9869 32.1477 22.7062 32.1222 23.1857 31.707L25.5234 29.6693L23.8917 21.71H20.7348V21.7036Z" stroke="#33B5F4" stroke-width="2" stroke-miterlimit="8.3333" stroke-linejoin="round"/>
</svg>
