<svg width="46" height="45" viewBox="0 0 46 45" fill="none" xmlns="http://www.w3.org/2000/svg">
<path opacity="0.21" fill-rule="evenodd" clip-rule="evenodd" d="M22.7977 0.701965H23.7209C35.6859 0.701965 45.3855 10.4016 45.3855 22.3666C45.3855 34.3316 35.6859 44.0312 23.7209 44.0312H22.7977H21.8746C9.90952 44.0312 0.20993 34.3316 0.20993 22.3666C0.20993 10.4016 9.90951 0.701965 21.8746 0.701965H22.7977Z" fill="#2BC840" fill-opacity="0.8"/>
<path d="M34.1145 31.3185C34.1145 33.2667 32.4704 34.8435 30.4392 34.8435H14.1013C12.0992 34.8435 10.4771 33.2877 10.4771 31.3675" stroke="#2BC840" stroke-width="2" stroke-miterlimit="50" stroke-linecap="round"/>
<path d="M14.9853 27.0295H30.4318" stroke="#2BC840" stroke-width="2" stroke-miterlimit="50" stroke-linecap="round"/>
<path d="M14.9853 30.5054H30.4318" stroke="#2BC840" stroke-width="2" stroke-miterlimit="50" stroke-linecap="round"/>
<path d="M17.7255 10.5495H19.9324C22.092 10.5495 24.4759 11.1955 24.4759 14.1885C24.4759 17.44 21.4548 18.6781 18.2448 18.3443C18.1386 18.3336 18.056 18.4089 18.0442 18.4951C18.0442 18.5489 18.056 18.592 18.1032 18.635L24.9125 25.3209" stroke="#2BC840" stroke-width="2" stroke-miterlimit="50" stroke-linecap="round"/>
<path d="M26.966 10.5495H19.779" stroke="#2BC840" stroke-width="2" stroke-miterlimit="50" stroke-linecap="round"/>
<path d="M17.7255 14.4886H26.966" stroke="#2BC840" stroke-width="2" stroke-miterlimit="50" stroke-linecap="round"/>
</svg>
