<svg width="46" height="45" viewBox="0 0 46 45" fill="none" xmlns="http://www.w3.org/2000/svg">
<path opacity="0.21" fill-rule="evenodd" clip-rule="evenodd" d="M22.7443 0.7435H23.6674C35.6325 0.7435 45.3321 10.4431 45.3321 22.4081C45.3321 34.3732 35.6325 44.0728 23.6674 44.0728H22.7443H21.8211C9.85608 44.0728 0.156494 34.3732 0.156494 22.4081C0.156494 10.4431 9.85608 0.7435 21.8211 0.7435H22.7443Z" fill="#FF9066"/>
<path d="M13.1323 26.7289C14.3659 24.061 17.1105 22.3405 20.1444 22.3405H23.4439C26.4777 22.3405 29.2283 24.061 30.456 26.7289C31.5834 29.1701 29.7241 31.9195 26.9499 31.9195H16.6383C13.8642 31.9195 12.0049 29.1701 13.1323 26.7289Z" stroke="#FF9066" stroke-width="2" stroke-miterlimit="8.3333" stroke-linejoin="round"/>
<path d="M18.4799 15.9585C18.4799 14.1973 19.9673 12.7674 21.7971 12.7674C23.6269 12.7674 25.1143 14.1973 25.1143 15.9585C25.1143 17.7197 23.6269 19.1495 21.7971 19.1495C19.9673 19.1495 18.4799 17.7197 18.4799 15.9585Z" stroke="#FF9066" stroke-width="2" stroke-miterlimit="8.3333" stroke-linejoin="round"/>
<path d="M25.126 20.5967H28.4491C31.3059 20.5967 33.8912 22.2126 35.054 24.7236C36.1164 27.0195 34.3693 29.6119 31.7545 29.6119H30.6153" stroke="#FF9066" stroke-width="2" stroke-miterlimit="8.3333" stroke-linecap="round" stroke-linejoin="round"/>
<path d="M25.1142 12.1163C25.6218 11.7791 26.2298 11.5815 26.8967 11.5815C28.6203 11.5815 30.0191 12.9242 30.0191 14.5866C30.0191 16.0978 28.8623 17.3475 27.3571 17.5626C27.2096 17.5858 27.0561 17.5974 26.8967 17.5974" stroke="#FF9066" stroke-width="2" stroke-miterlimit="8.3333" stroke-linecap="round" stroke-linejoin="round"/>
<path d="M12.7546 29.6119H11.6154C9.00062 29.6119 7.25349 27.0253 8.31593 24.7236C9.47282 22.2126 12.064 20.5967 14.9208 20.5967H18.2439" stroke="#FF9066" stroke-width="2" stroke-miterlimit="8.3333" stroke-linecap="round" stroke-linejoin="round"/>
<path d="M16.4672 17.5917C16.3138 17.5917 16.1603 17.5801 16.0068 17.5569C14.5017 17.3418 13.3448 16.0921 13.3448 14.5809C13.3448 12.9185 14.7437 11.5758 16.4672 11.5758C17.1283 11.5758 17.7421 11.7734 18.2498 12.1106" stroke="#FF9066" stroke-width="2" stroke-miterlimit="8.3333" stroke-linecap="round" stroke-linejoin="round"/>
</svg>
