<svg width="46" height="44" viewBox="0 0 46 44" fill="none" xmlns="http://www.w3.org/2000/svg">
<path opacity="0.21" fill-rule="evenodd" clip-rule="evenodd" d="M22.7443 0.498474H23.6674C35.6325 0.498474 45.3321 10.1981 45.3321 22.1631C45.3321 34.1281 35.6325 43.8277 23.6674 43.8277H22.7443H21.8211C9.85608 43.8277 0.156494 34.1281 0.156494 22.1631C0.156494 10.1981 9.85608 0.498474 21.8211 0.498474H22.7443Z" fill="#026BD6"/>
<path d="M11.8613 14.3906V25.0021" stroke="#016BD6" stroke-width="2" stroke-linecap="round" stroke-linejoin="round"/>
<path d="M12.9159 34.5506C16.5904 29.145 24.1409 27.618 29.7769 31.1423C31.1943 32.0314 32.4034 33.1912 33.3305 34.5506" stroke="#016BD6" stroke-width="2" stroke-linecap="round" stroke-linejoin="round"/>
<path d="M33.8477 15.2088L24.4297 18.2177C23.5833 18.4883 22.663 18.4883 21.8099 18.2177L12.3852 15.2023C11.5724 14.9446 11.5724 13.8364 12.3852 13.5787L21.9442 10.5248C22.7033 10.2799 23.5295 10.2799 24.2886 10.5248L33.8409 13.5787C34.6605 13.8364 34.6605 14.9446 33.8477 15.2088Z" stroke="#016BD6" stroke-width="2" stroke-linecap="round" stroke-linejoin="round"/>
<path d="M28.8297 16.8068C31.7182 19.835 31.5032 24.5319 28.346 27.3024C25.1888 30.0728 20.2917 29.8667 17.4032 26.8385C14.6893 23.9971 14.6893 19.6417 17.4032 16.8068" stroke="#016BD6" stroke-width="2" stroke-linecap="round" stroke-linejoin="round"/>
</svg>
