<svg width="30" height="30" viewBox="0 0 30 30" fill="none" xmlns="http://www.w3.org/2000/svg">
<path d="M10 14.9999C12.85 14.9999 15 12.8499 15 9.99992C15 7.14992 12.85 4.99992 10 4.99992C7.15 4.99992 5 7.14992 5 9.99992C5 12.8499 7.15 14.9999 10 14.9999ZM10 7.49992C11.4725 7.49992 12.5 8.52742 12.5 9.99992C12.5 11.4724 11.4725 12.4999 10 12.4999C8.5275 12.4999 7.5 11.4724 7.5 9.99992C7.5 8.52742 8.5275 7.49992 10 7.49992ZM11.25 16.2499H8.75C5.30375 16.2499 2.5 19.0537 2.5 22.4999V23.7499H5V22.4999C5 20.4324 6.6825 18.7499 8.75 18.7499H11.25C13.3175 18.7499 15 20.4324 15 22.4999V23.7499H17.5V22.4999C17.5 19.0537 14.6962 16.2499 11.25 16.2499ZM22.955 3.29492L21.1875 5.06242C22.8388 6.71617 23.75 8.91367 23.75 11.2499C23.75 13.5862 22.8388 15.7837 21.1875 17.4374L22.955 19.2049C25.08 17.0787 26.25 14.2537 26.25 11.2499C26.25 8.24617 25.08 5.42117 22.955 3.29492Z" fill="white"/>
<path d="M19.4187 6.83008L17.6512 8.60008C18.36 9.30633 18.75 10.2476 18.75 11.2501C18.75 12.2526 18.36 13.1938 17.6512 13.9001L19.4187 15.6701C20.5987 14.4901 21.25 12.9213 21.25 11.2501C21.25 9.57883 20.5987 8.01008 19.4187 6.83008Z" fill="white"/>
</svg>
